<svg xmlns="http://www.w3.org/2000/svg" version="1.1" xmlns:xlink="http://www.w3.org/1999/xlink" xmlns:svgjs="http://svgjs.dev/svgjs" width="1440" height="560" preserveAspectRatio="none" viewBox="0 0 1440 560"><g mask="url(&quot;#SvgjsMask1003&quot;)" fill="none"><rect width="1440" height="560" x="0" y="0" fill="rgba(147, 111, 4, 1)"></rect><path d="M0,492.104C124.297,514.24,246.047,611.748,363.678,565.893C481.272,520.052,547.088,386.964,581.336,265.487C613.258,152.26,580.934,33.716,545.325,-78.406C514.182,-176.464,462.095,-264.565,389.758,-337.727C320.852,-407.418,229.187,-439.766,142.616,-485.704C31.935,-544.436,-65.878,-666.049,-189.405,-645.055C-311.572,-624.292,-381.741,-492.213,-445.232,-385.795C-501.162,-292.051,-510.155,-183.584,-528.889,-76.043C-548.243,35.056,-603.548,151.656,-556.729,254.25C-509.908,356.847,-392.687,405.353,-288.979,449.661C-197.597,488.703,-97.834,474.681,0,492.104" fill="#765903"></path><path d="M1440 921.386C1507.314 921.823 1567.037 881.9300000000001 1621.234 842.005 1672.8 804.018 1713.8220000000001 755.399 1742.8319999999999 698.299 1772.799 639.315 1795.0529999999999 575.639 1790.08 509.666 1784.91 441.078 1752.71 379.34299999999996 1714.478 322.164 1671.908 258.498 1625.088 196.464 1557.094 161.216 1480.481 121.5 1389.913 83.45299999999997 1308.345 111.62400000000002 1227.096 139.685 1187.717 229.589 1144.305 303.779 1107.375 366.89 1082.284 434.847 1076.555 507.744 1071.09 577.283 1078.633 648.576 1112.412 709.604 1144.857 768.221 1204.01 803.287 1260.273 839.6610000000001 1316.683 876.13 1372.829 920.95 1440 921.386" fill="#b08505"></path></g><defs><mask id="SvgjsMask1003"><rect width="1440" height="560" fill="#ffffff"></rect></mask></defs></svg>