<?xml version="1.0" standalone="no"?><svg xmlns="http://www.w3.org/2000/svg" viewBox="0 0 1440 320"><path fill="#efb810" fill-opacity="1" d="M0,160L26.7,186.7C53.3,213,107,267,160,256C213.3,245,267,171,320,170.7C373.3,171,427,245,480,261.3C533.3,277,587,235,640,229.3C693.3,224,747,256,800,245.3C853.3,235,907,181,960,165.3C1013.3,149,1067,171,1120,186.7C1173.3,203,1227,213,1280,218.7C1333.3,224,1387,224,1413,224L1440,224L1440,0L1413.3,0C1386.7,0,1333,0,1280,0C1226.7,0,1173,0,1120,0C1066.7,0,1013,0,960,0C906.7,0,853,0,800,0C746.7,0,693,0,640,0C586.7,0,533,0,480,0C426.7,0,373,0,320,0C266.7,0,213,0,160,0C106.7,0,53,0,27,0L0,0Z"></path></svg>