<?xml version="1.0" standalone="no"?><svg xmlns="http://www.w3.org/2000/svg" viewBox="0 0 1440 320"><path fill="#efb810" fill-opacity="1" d="M0,160L26.7,186.7C53.3,213,107,267,160,256C213.3,245,267,171,320,170.7C373.3,171,427,245,480,261.3C533.3,277,587,235,640,229.3C693.3,224,747,256,800,245.3C853.3,235,907,181,960,165.3C1013.3,149,1067,171,1120,186.7C1173.3,203,1227,213,1280,218.7C1333.3,224,1387,224,1413,224L1440,224L1440,320L1413.3,320C1386.7,320,1333,320,1280,320C1226.7,320,1173,320,1120,320C1066.7,320,1013,320,960,320C906.7,320,853,320,800,320C746.7,320,693,320,640,320C586.7,320,533,320,480,320C426.7,320,373,320,320,320C266.7,320,213,320,160,320C106.7,320,53,320,27,320L0,320Z"></path></svg>